<svg id="Слой_1" data-name="Слой 1" xmlns="http://www.w3.org/2000/svg" xmlns:xlink="http://www.w3.org/1999/xlink" viewBox="0 0 2000 2000"><defs><style>.cls-1{fill:url(#Безымянный_градиент_6);}</style><linearGradient id="Безымянный_градиент_6" x1="457.27" y1="964.39" x2="1404.01" y2="964.39" gradientUnits="userSpaceOnUse"><stop offset="0" stop-color="#00e7e7"/><stop offset="1" stop-color="#0098a0"/></linearGradient></defs><path class="cls-1" d="M1351,672.78c-37.88-49.78-92.16-78.34-148.87-78.34H817.89c5.4-42.09,18.41-79.73,48.43-109.88a27.9,27.9,0,0,0,8.25-19.66v-.45c0-27.76-30.05-45.1-54.09-31.22L475.31,632.51c-24.05,13.88-24.05,48.57,0,62.45L820.48,894.25c24,13.88,54.09-3.46,54.09-31.22v-.45a27.9,27.9,0,0,0-8.25-19.66c-30-30.14-43-67.78-48.43-109.86h384.25c29.85,0,63.25,44.85,63.25,104.9v419c0,60-18.69,104.9-63.25,104.9H848.79a64.61,64.61,0,0,1-64.61-64.61V1041.69c0-37.57-29.2-69.57-66.74-70.93A69.32,69.32,0,0,0,645.56,1040v391.1a69.31,69.31,0,0,0,69.31,69.31h487.27c56.71,0,111-28.56,148.87-78.37,34.17-44.9,53-103.54,53-165.15V838C1404,776.36,1385.18,717.69,1351,672.78Z"/></svg>